<?xml version="1.0" encoding="UTF-8" standalone="no"?>
<svg
   xmlns:dc="http://purl.org/dc/elements/1.1/"
   xmlns:cc="http://creativecommons.org/ns#"
   xmlns:rdf="http://www.w3.org/1999/02/22-rdf-syntax-ns#"
   xmlns:svg="http://www.w3.org/2000/svg"
   xmlns="http://www.w3.org/2000/svg"
   xmlns:sodipodi="http://sodipodi.sourceforge.net/DTD/sodipodi-0.dtd"
   xmlns:inkscape="http://www.inkscape.org/namespaces/inkscape"
   width="50mm"
   height="195mm"
   viewBox="0 0 50 195"
   version="1.1"
   id="svg973"
   inkscape:version="1.0.2-2 (e86c870879, 2021-01-15)"
   sodipodi:docname="audio-faceplate_markus.svg">
  <defs
     id="defs967" />
  <sodipodi:namedview
     id="base"
     pagecolor="#ffffff"
     bordercolor="#666666"
     borderopacity="1.0"
     inkscape:pageopacity="0.0"
     inkscape:pageshadow="2"
     inkscape:zoom="5.6568542"
     inkscape:cx="-32.467056"
     inkscape:cy="370.4654"
     inkscape:document-units="mm"
     inkscape:current-layer="layer1"
     showgrid="false"
     inkscape:window-width="5104"
     inkscape:window-height="1361"
     inkscape:window-x="196"
     inkscape:window-y="76"
     inkscape:window-maximized="0"
     showguides="true"
     fit-margin-top="2"
     fit-margin-left="2"
     fit-margin-bottom="2"
     fit-margin-right="2"
     inkscape:document-rotation="0"
     inkscape:guide-bbox="true">
    <sodipodi:guide
       position="-183.09167,25.93125"
       orientation="1,0"
       id="guide1041" />
    <sodipodi:guide
       position="13.938105,7.4909059"
       orientation="0,-1"
       id="guide1043" />
    <sodipodi:guide
       position="-25.532292,55.696875"
       orientation="1,0"
       id="guide1057" />
    <sodipodi:guide
       position="-294.87812,18.126042"
       orientation="1,0"
       id="guide1067" />
    <sodipodi:guide
       position="-519.37708,47.097917"
       orientation="1,0"
       id="guide1069" />
  </sodipodi:namedview>
  <metadata
     id="metadata970">
    <rdf:RDF>
      <cc:Work
         rdf:about="">
        <dc:format>image/svg+xml</dc:format>
        <dc:type
           rdf:resource="http://purl.org/dc/dcmitype/StillImage" />
        <dc:title></dc:title>
      </cc:Work>
    </rdf:RDF>
  </metadata>
  <g
     inkscape:label="Vector"
     inkscape:groupmode="layer"
     id="layer1"
     style="display:inline"
     transform="translate(-65.205356,-8.7802234)">
    <path
       id="Sketch036_w0014-9-3-45"
       d="m 87.440694,86.202017 a 59.948911,59.948911 0 0 0 -9.05518,0 1.593925,1.593925 0 0 0 -1.47344,1.57078 150.06047,150.06047 0 0 0 0,3.50245 1.593925,1.593925 0 0 0 1.47344,1.57078 59.948911,59.948911 0 0 0 9.05518,0 1.593925,1.593925 0 0 0 1.47343,-1.57078 150.06047,150.06047 0 0 0 0,-3.50245 1.593925,1.593925 0 0 0 -1.47343,-1.57078"
       style="display:inline;fill:none;fill-rule:evenodd;stroke:#ff0000;stroke-width:0.001;stroke-miterlimit:4;stroke-dasharray:none;stroke-opacity:1"
       inkscape:connector-curvature="0" />
    <path
       id="Sketch036_w0014-9-4-4-7"
       d="m 87.440694,73.202017 a 59.948911,59.948911 0 0 0 -9.05518,0 1.593925,1.593925 0 0 0 -1.47344,1.57078 150.06047,150.06047 0 0 0 0,3.50245 1.593925,1.593925 0 0 0 1.47344,1.57078 59.948911,59.948911 0 0 0 9.05518,0 1.593925,1.593925 0 0 0 1.47343,-1.57078 150.06047,150.06047 0 0 0 0,-3.50245 1.593925,1.593925 0 0 0 -1.47343,-1.57078"
       style="display:inline;fill:none;fill-rule:evenodd;stroke:#ff0000;stroke-width:0.001;stroke-miterlimit:4;stroke-dasharray:none;stroke-opacity:1"
       inkscape:connector-curvature="0" />
    <path
       id="Sketch036_w0014-9-4-6-7-8"
       d="m 87.347638,58.631053 a 59.948911,59.948911 0 0 0 -9.05518,0 1.593925,1.593925 0 0 0 -1.47344,1.57078 150.06047,150.06047 0 0 0 0,3.50245 1.593925,1.593925 0 0 0 1.47344,1.57078 59.948911,59.948911 0 0 0 9.05518,0 1.593925,1.593925 0 0 0 1.47343,-1.57078 150.06047,150.06047 0 0 0 0,-3.50245 1.593925,1.593925 0 0 0 -1.47343,-1.57078"
       style="display:inline;fill:none;fill-rule:evenodd;stroke:#ff0000;stroke-width:0.001;stroke-miterlimit:4;stroke-dasharray:none;stroke-opacity:1"
       inkscape:connector-curvature="0" />
    <path
       id="Sketch036_w0014-9-4-6-0-88-7"
       d="m 102.0542,58.631053 a 59.948911,59.948911 0 0 0 -9.055142,0 1.593925,1.593925 0 0 0 -1.47344,1.57078 150.06047,150.06047 0 0 0 0,3.50245 1.593925,1.593925 0 0 0 1.47344,1.57078 59.948911,59.948911 0 0 0 9.055142,0 1.593925,1.593925 0 0 0 1.47343,-1.57078 150.06047,150.06047 0 0 0 0,-3.50245 1.593925,1.593925 0 0 0 -1.47343,-1.57078"
       style="display:inline;fill:none;fill-rule:evenodd;stroke:#ff0000;stroke-width:0.001;stroke-miterlimit:4;stroke-dasharray:none;stroke-opacity:1"
       inkscape:connector-curvature="0" />
    <path
       id="Sketch036_w0014-9-4-6-0-5-4-0"
       d="m 102.14724,73.202017 a 59.948911,59.948911 0 0 0 -9.055126,0 1.593925,1.593925 0 0 0 -1.47344,1.57078 150.06047,150.06047 0 0 0 0,3.50245 1.593925,1.593925 0 0 0 1.47344,1.57078 59.948911,59.948911 0 0 0 9.055126,0 1.593925,1.593925 0 0 0 1.47344,-1.57078 150.06047,150.06047 0 0 0 0,-3.50245 1.593925,1.593925 0 0 0 -1.47344,-1.57078"
       style="display:inline;fill:none;fill-rule:evenodd;stroke:#ff0000;stroke-width:0.001;stroke-miterlimit:4;stroke-dasharray:none;stroke-opacity:1"
       inkscape:connector-curvature="0" />
    <path
       id="Sketch036_w0014-9-4-6-0-8-6-0"
       d="m 102.14724,86.202017 a 59.948911,59.948911 0 0 0 -9.055126,0 1.593925,1.593925 0 0 0 -1.47344,1.57078 150.06047,150.06047 0 0 0 0,3.50245 1.593925,1.593925 0 0 0 1.47344,1.57078 59.948911,59.948911 0 0 0 9.055126,0 1.593925,1.593925 0 0 0 1.47344,-1.57078 150.06047,150.06047 0 0 0 0,-3.50245 1.593925,1.593925 0 0 0 -1.47344,-1.57078"
       style="display:inline;fill:none;fill-rule:evenodd;stroke:#ff0000;stroke-width:0.001;stroke-miterlimit:4;stroke-dasharray:none;stroke-opacity:1"
       inkscape:connector-curvature="0" />
    <path
       id="Sketch036_w0014-9-4-6-7-6-4"
       d="m 102.0542,45.631053 a 59.948911,59.948911 0 0 0 -9.055142,0 1.593925,1.593925 0 0 0 -1.47344,1.57078 150.06047,150.06047 0 0 0 0,3.50245 1.593925,1.593925 0 0 0 1.47344,1.57078 59.948911,59.948911 0 0 0 9.055142,0 1.593925,1.593925 0 0 0 1.47343,-1.57078 150.06047,150.06047 0 0 0 0,-3.50245 1.593925,1.593925 0 0 0 -1.47343,-1.57078"
       style="display:inline;fill:none;fill-rule:evenodd;stroke:#ff0000;stroke-width:0.001;stroke-miterlimit:4;stroke-dasharray:none;stroke-opacity:1"
       inkscape:connector-curvature="0" />
    <path
       id="Sketch036_w0014-9-4-6-7-9-1"
       d="m 87.347638,45.631043 a 59.948911,59.948911 0 0 0 -9.05518,0 1.593925,1.593925 0 0 0 -1.47344,1.57078 150.06047,150.06047 0 0 0 0,3.50245 1.593925,1.593925 0 0 0 1.47344,1.57079 59.948911,59.948911 0 0 0 9.05518,0 1.593925,1.593925 0 0 0 1.47343,-1.57079 150.06047,150.06047 0 0 0 0,-3.50245 1.593925,1.593925 0 0 0 -1.47343,-1.57078"
       style="display:inline;fill:none;fill-rule:evenodd;stroke:#ff0000;stroke-width:0.001;stroke-miterlimit:4;stroke-dasharray:none;stroke-opacity:1"
       inkscape:connector-curvature="0" />
    <path
       id="Sketch036_w0014-9-4-6-7-7-3"
       d="m 87.347638,32.631053 a 59.948911,59.948911 0 0 0 -9.05518,0 1.593925,1.593925 0 0 0 -1.47344,1.57078 150.06047,150.06047 0 0 0 0,3.50245 1.593925,1.593925 0 0 0 1.47344,1.57078 59.948911,59.948911 0 0 0 9.05518,0 1.593925,1.593925 0 0 0 1.47343,-1.57078 150.06047,150.06047 0 0 0 0,-3.50245 1.593925,1.593925 0 0 0 -1.47343,-1.57078"
       style="display:inline;fill:none;fill-rule:evenodd;stroke:#ff0000;stroke-width:0.001;stroke-miterlimit:4;stroke-dasharray:none;stroke-opacity:1"
       inkscape:connector-curvature="0" />
    <path
       id="Sketch036_w0014-9-4-6-7-0-5"
       d="m 87.347638,19.631323 a 59.948911,59.948911 0 0 0 -9.05518,0 1.593925,1.593925 0 0 0 -1.47344,1.57078 150.06047,150.06047 0 0 0 0,3.50245 1.593925,1.593925 0 0 0 1.47344,1.57078 59.948911,59.948911 0 0 0 9.05518,0 1.593925,1.593925 0 0 0 1.47344,-1.57078 150.06047,150.06047 0 0 0 0,-3.50245 1.593925,1.593925 0 0 0 -1.47344,-1.57078"
       style="display:inline;fill:none;fill-rule:evenodd;stroke:#ff0000;stroke-width:0.001;stroke-miterlimit:4;stroke-dasharray:none;stroke-opacity:1"
       inkscape:connector-curvature="0" />
    <path
       id="Sketch036_w0014-9-4-6-7-3-9"
       d="m 102.0542,32.631053 a 59.948911,59.948911 0 0 0 -9.055142,0 1.593925,1.593925 0 0 0 -1.47344,1.57078 150.06047,150.06047 0 0 0 0,3.50245 1.593925,1.593925 0 0 0 1.47344,1.57078 59.948911,59.948911 0 0 0 9.055142,0 1.593925,1.593925 0 0 0 1.47343,-1.57078 150.06047,150.06047 0 0 0 0,-3.50245 1.593925,1.593925 0 0 0 -1.47343,-1.57078"
       style="display:inline;fill:none;fill-rule:evenodd;stroke:#ff0000;stroke-width:0.001;stroke-miterlimit:4;stroke-dasharray:none;stroke-opacity:1"
       inkscape:connector-curvature="0" />
    <path
       id="Sketch036_w0014-9-4-6-7-2-5-3"
       d="m 102.0542,19.631313 a 59.948911,59.948911 0 0 0 -9.055142,0 1.593925,1.593925 0 0 0 -1.47344,1.57078 150.06047,150.06047 0 0 0 0,3.50245 1.593925,1.593925 0 0 0 1.47344,1.57079 59.948911,59.948911 0 0 0 9.055142,0 1.593925,1.593925 0 0 0 1.47343,-1.57079 150.06047,150.06047 0 0 0 0,-3.50245 1.593925,1.593925 0 0 0 -1.47343,-1.57078"
       style="display:inline;fill:none;fill-rule:evenodd;stroke:#ff0000;stroke-width:0.001;stroke-miterlimit:4;stroke-dasharray:none;stroke-opacity:1"
       inkscape:connector-curvature="0" />
    <path
       id="Sketch036_w0014-9-3-4"
       d="m 87.336414,140.31586 a 59.948911,59.948911 0 0 0 -9.05518,0 1.593925,1.593925 0 0 0 -1.47344,1.57078 150.06047,150.06047 0 0 0 0,3.50245 1.593925,1.593925 0 0 0 1.47344,1.57078 59.948911,59.948911 0 0 0 9.05518,0 1.593925,1.593925 0 0 0 1.47343,-1.57078 150.06047,150.06047 0 0 0 0,-3.50245 1.593925,1.593925 0 0 0 -1.47343,-1.57078"
       style="display:inline;fill:none;fill-rule:evenodd;stroke:#ff0000;stroke-width:0.001;stroke-miterlimit:4;stroke-dasharray:none;stroke-opacity:1"
       inkscape:connector-curvature="0" />
    <path
       id="Sketch036_w0014-9-4-4-9"
       d="m 87.45683,125.35085 a 59.948911,59.948911 0 0 0 -9.05518,0 1.593925,1.593925 0 0 0 -1.47344,1.57078 150.06047,150.06047 0 0 0 0,3.50245 1.593925,1.593925 0 0 0 1.47344,1.57078 59.948911,59.948911 0 0 0 9.05518,0 1.593925,1.593925 0 0 0 1.47343,-1.57078 150.06047,150.06047 0 0 0 0,-3.50245 1.593925,1.593925 0 0 0 -1.47343,-1.57078"
       style="display:inline;fill:none;fill-rule:evenodd;stroke:#ff0000;stroke-width:0.001;stroke-miterlimit:4;stroke-dasharray:none;stroke-opacity:1"
       inkscape:connector-curvature="0" />
    <path
       id="Sketch036_w0014-9-4-6-7-06"
       d="m 87.45683,112.35085 a 59.948911,59.948911 0 0 0 -9.05518,0 1.593925,1.593925 0 0 0 -1.47344,1.57078 150.06047,150.06047 0 0 0 0,3.50245 1.593925,1.593925 0 0 0 1.47344,1.57078 59.948911,59.948911 0 0 0 9.05518,0 1.593925,1.593925 0 0 0 1.47343,-1.57078 150.06047,150.06047 0 0 0 0,-3.50245 1.593925,1.593925 0 0 0 -1.47343,-1.57078"
       style="display:inline;fill:none;fill-rule:evenodd;stroke:#ff0000;stroke-width:0.001;stroke-miterlimit:4;stroke-dasharray:none;stroke-opacity:1"
       inkscape:connector-curvature="0" />
    <path
       id="Sketch036_w0014-9-4-6-0-8-6-6"
       d="m 102.04337,140.31586 a 59.948911,59.948911 0 0 0 -9.055136,0 1.593925,1.593925 0 0 0 -1.47344,1.57078 150.06047,150.06047 0 0 0 0,3.50245 1.593925,1.593925 0 0 0 1.47344,1.57078 59.948911,59.948911 0 0 0 9.055136,0 1.593925,1.593925 0 0 0 1.47343,-1.57078 150.06047,150.06047 0 0 0 0,-3.50245 1.593925,1.593925 0 0 0 -1.47343,-1.57078"
       style="display:inline;fill:none;fill-rule:evenodd;stroke:#ff0000;stroke-width:0.001;stroke-miterlimit:4;stroke-dasharray:none;stroke-opacity:1"
       inkscape:connector-curvature="0" />
    <path
       id="Sketch036_w0014-9-4-6-7-7-7"
       d="m 87.45683,99.350846 a 59.948911,59.948911 0 0 0 -9.05518,0 1.593925,1.593925 0 0 0 -1.47344,1.570774 150.06047,150.06047 0 0 0 0,3.50245 1.593925,1.593925 0 0 0 1.47344,1.57079 59.948911,59.948911 0 0 0 9.05518,0 1.593925,1.593925 0 0 0 1.47343,-1.57079 150.06047,150.06047 0 0 0 0,-3.50245 1.593925,1.593925 0 0 0 -1.47343,-1.570774"
       style="display:inline;fill:none;fill-rule:evenodd;stroke:#ff0000;stroke-width:0.001;stroke-miterlimit:4;stroke-dasharray:none;stroke-opacity:1"
       inkscape:connector-curvature="0" />
    <path
       id="Sketch036_w0014-9-4-6-7-3-7"
       d="m 102.16378,99.350846 a 59.948911,59.948911 0 0 0 -9.05513,0 1.593925,1.593925 0 0 0 -1.47344,1.570774 150.06047,150.06047 0 0 0 0,3.50245 1.593925,1.593925 0 0 0 1.47344,1.57079 59.948911,59.948911 0 0 0 9.05513,0 1.593925,1.593925 0 0 0 1.47344,-1.57079 150.06047,150.06047 0 0 0 0,-3.50245 1.593925,1.593925 0 0 0 -1.47344,-1.570774"
       style="display:inline;fill:none;fill-rule:evenodd;stroke:#ff0000;stroke-width:0.001;stroke-miterlimit:4;stroke-dasharray:none;stroke-opacity:1"
       inkscape:connector-curvature="0" />
    <rect
       style="display:inline;fill:none;fill-opacity:1;stroke:#ff0000;stroke-width:0.001;stroke-linecap:butt;stroke-linejoin:round;stroke-miterlimit:4;stroke-dasharray:none;stroke-opacity:1"
       id="rect1590"
       width="43.88921"
       height="189.94223"
       x="68.157448"
       y="10.897483" />
    <circle
       id="circle7-2-8"
       style="display:inline;fill:none;stroke:#ff0000;stroke-width:0.001;stroke-miterlimit:4;stroke-dasharray:none;stroke-opacity:1"
       cy="-174.67345"
       cx="90.262741"
       transform="scale(1,-1)"
       r="3.5482118" />
    <ellipse
       id="circle7-2-7"
       style="display:inline;fill:none;stroke:#ff0000;stroke-width:0.001;stroke-miterlimit:4;stroke-dasharray:none;stroke-opacity:1"
       cy="-188.18413"
       cx="90.262245"
       transform="scale(1,-1)"
       rx="6.1085343"
       ry="6.1085348" />
    <path
       id="Sketch036_w0014-9-4-6-7-3-7-2"
       d="m 102.16372,112.35085 a 59.948911,59.948911 0 0 0 -9.05513,0 1.593925,1.593925 0 0 0 -1.47344,1.57078 150.06047,150.06047 0 0 0 0,3.50245 1.593925,1.593925 0 0 0 1.47344,1.57078 59.948911,59.948911 0 0 0 9.05513,0 1.593925,1.593925 0 0 0 1.47344,-1.57078 150.06047,150.06047 0 0 0 0,-3.50245 1.593925,1.593925 0 0 0 -1.47344,-1.57078"
       style="display:inline;fill:none;fill-rule:evenodd;stroke:#ff0000;stroke-width:0.001;stroke-miterlimit:4;stroke-dasharray:none;stroke-opacity:1"
       inkscape:connector-curvature="0" />
    <path
       id="Sketch036_w0014-9-3-4-1"
       d="m 87.359741,153.10539 a 59.948911,59.948911 0 0 0 -9.05518,0 1.593925,1.593925 0 0 0 -1.47344,1.57078 150.06047,150.06047 0 0 0 0,3.50245 1.593925,1.593925 0 0 0 1.47344,1.57078 59.948911,59.948911 0 0 0 9.05518,0 1.593925,1.593925 0 0 0 1.47343,-1.57078 150.06047,150.06047 0 0 0 0,-3.50245 1.593925,1.593925 0 0 0 -1.47343,-1.57078"
       style="display:inline;fill:none;fill-rule:evenodd;stroke:#ff0000;stroke-width:0.001;stroke-miterlimit:4;stroke-dasharray:none;stroke-opacity:1"
       inkscape:connector-curvature="0" />
    <path
       id="Sketch036_w0014-9-4-6-0-8-6-6-3"
       d="m 102.0667,153.10539 a 59.948911,59.948911 0 0 0 -9.055139,0 1.593925,1.593925 0 0 0 -1.47344,1.57078 150.06047,150.06047 0 0 0 0,3.50245 1.593925,1.593925 0 0 0 1.47344,1.57078 59.948911,59.948911 0 0 0 9.055139,0 1.593925,1.593925 0 0 0 1.47343,-1.57078 150.06047,150.06047 0 0 0 0,-3.50245 1.593925,1.593925 0 0 0 -1.47343,-1.57078"
       style="display:inline;fill:none;fill-rule:evenodd;stroke:#ff0000;stroke-width:0.001;stroke-miterlimit:4;stroke-dasharray:none;stroke-opacity:1"
       inkscape:connector-curvature="0" />
    <circle
       id="circle7-2-1"
       style="display:inline;fill:none;stroke:#ff0000;stroke-width:0.001;stroke-miterlimit:4;stroke-dasharray:none;stroke-opacity:1"
       cy="-16.448088"
       cx="82.819397"
       transform="scale(1,-1)"
       r="1.4992547" />
    <circle
       id="circle7-2-1-3"
       style="display:inline;fill:none;stroke:#ff0000;stroke-width:0.001;stroke-miterlimit:4;stroke-dasharray:none;stroke-opacity:1"
       cy="-29.448141"
       cx="82.819397"
       transform="scale(1,-1)"
       r="1.4992547" />
    <circle
       id="circle7-2-1-3-5"
       style="display:inline;fill:none;stroke:#ff0000;stroke-width:0.001;stroke-miterlimit:4;stroke-dasharray:none;stroke-opacity:1"
       cy="-42.648247"
       cx="82.819397"
       transform="scale(1,-1)"
       r="1.4992547" />
    <circle
       id="circle7-2-1-3-1"
       style="display:inline;fill:none;stroke:#ff0000;stroke-width:0.001;stroke-miterlimit:4;stroke-dasharray:none;stroke-opacity:1"
       cy="-55.44825"
       cx="82.819397"
       transform="scale(1,-1)"
       r="1.4992547" />
    <circle
       id="circle7-2-1-3-4"
       style="display:inline;fill:none;stroke:#ff0000;stroke-width:0.001;stroke-miterlimit:4;stroke-dasharray:none;stroke-opacity:1"
       cy="-70.019211"
       cx="82.538277"
       transform="scale(1,-1)"
       r="1.4992547"
       inkscape:transform-center-x="-1.6036172"
       inkscape:transform-center-y="-12.160764" />
    <circle
       id="circle7-2-1-3-3"
       style="display:inline;fill:none;stroke:#ff0000;stroke-width:0.001;stroke-miterlimit:4;stroke-dasharray:none;stroke-opacity:1"
       cy="-83.019211"
       cx="82.912453"
       transform="scale(1,-1)"
       r="1.4992547" />
    <circle
       id="circle7-2-1-3-0"
       style="display:inline;fill:none;stroke:#ff0000;stroke-width:0.001;stroke-miterlimit:4;stroke-dasharray:none;stroke-opacity:1"
       cy="-96.168045"
       cx="82.928986"
       transform="scale(1,-1)"
       r="1.4992547" />
    <circle
       id="circle7-2-1-3-8"
       style="display:inline;fill:none;stroke:#ff0000;stroke-width:0.001;stroke-miterlimit:4;stroke-dasharray:none;stroke-opacity:1"
       cy="-109.16805"
       cx="82.928986"
       transform="scale(1,-1)"
       r="1.4992547"
       inkscape:transform-center-x="-16.036172"
       inkscape:transform-center-y="49.444863" />
    <circle
       id="circle7-2-1-3-81"
       style="display:inline;fill:none;stroke:#ff0000;stroke-width:0.001;stroke-miterlimit:4;stroke-dasharray:none;stroke-opacity:1"
       cy="-122.16805"
       cx="82.928986"
       transform="scale(1,-1)"
       r="1.4992547" />
    <circle
       id="circle7-2-1-3-13"
       style="display:inline;fill:none;stroke:#ff0000;stroke-width:0.001;stroke-miterlimit:4;stroke-dasharray:none;stroke-opacity:1"
       cy="-137.13293"
       cx="82.808571"
       transform="scale(1,-1)"
       r="1.4992547" />
    <circle
       id="circle7-2-1-3-7"
       style="display:inline;fill:none;stroke:#ff0000;stroke-width:0.001;stroke-miterlimit:4;stroke-dasharray:none;stroke-opacity:1"
       cy="-150.08615"
       cx="82.948891"
       transform="scale(1,-1)"
       r="1.4992547" />
    <circle
       id="circle7-2-1-0"
       style="display:inline;fill:none;stroke:#ff0000;stroke-width:0.001;stroke-miterlimit:4;stroke-dasharray:none;stroke-opacity:1"
       cy="-16.448088"
       cx="97.526413"
       transform="scale(1,-1)"
       r="1.4992547" />
    <circle
       id="circle7-2-1-0-7"
       style="display:inline;fill:none;stroke:#ff0000;stroke-width:0.001;stroke-miterlimit:4;stroke-dasharray:none;stroke-opacity:1"
       cy="-29.448141"
       cx="97.526413"
       transform="scale(1,-1)"
       r="1.4992547" />
    <circle
       id="circle7-2-1-0-70"
       style="display:inline;fill:none;stroke:#ff0000;stroke-width:0.001;stroke-miterlimit:4;stroke-dasharray:none;stroke-opacity:1"
       cy="-42.44825"
       cx="97.526413"
       transform="scale(1,-1)"
       r="1.4992547" />
    <circle
       id="circle7-2-1-0-1"
       style="display:inline;fill:none;stroke:#ff0000;stroke-width:0.001;stroke-miterlimit:4;stroke-dasharray:none;stroke-opacity:1"
       cy="-55.44825"
       cx="97.526413"
       transform="scale(1,-1)"
       r="1.4992547" />
    <circle
       id="circle7-2-1-0-0"
       style="display:inline;fill:none;stroke:#ff0000;stroke-width:0.001;stroke-miterlimit:4;stroke-dasharray:none;stroke-opacity:1"
       cy="-70.019211"
       cx="97.245293"
       transform="scale(1,-1)"
       r="1.4992547" />
    <circle
       id="circle7-2-1-0-4"
       style="display:inline;fill:none;stroke:#ff0000;stroke-width:0.001;stroke-miterlimit:4;stroke-dasharray:none;stroke-opacity:1"
       cy="-83.019211"
       cx="97.619469"
       transform="scale(1,-1)"
       r="1.4992547" />
    <circle
       id="circle7-2-1-0-3"
       style="display:inline;fill:none;stroke:#ff0000;stroke-width:0.001;stroke-miterlimit:4;stroke-dasharray:none;stroke-opacity:1"
       cy="-96.168045"
       cx="97.636002"
       transform="scale(1,-1)"
       r="1.4992547" />
    <circle
       id="circle7-2-1-0-16"
       style="display:inline;fill:none;stroke:#ff0000;stroke-width:0.001;stroke-miterlimit:4;stroke-dasharray:none;stroke-opacity:1"
       cy="-109.16805"
       cx="97.636002"
       transform="scale(1,-1)"
       r="1.4992547" />
    <circle
       id="circle7-2-1-0-2"
       style="display:inline;fill:none;stroke:#ff0000;stroke-width:0.001;stroke-miterlimit:4;stroke-dasharray:none;stroke-opacity:1"
       cy="-137.13293"
       cx="97.515587"
       transform="scale(1,-1)"
       r="1.4992547" />
    <circle
       id="circle7-2-1-0-06"
       style="display:inline;fill:none;stroke:#ff0000;stroke-width:0.001;stroke-miterlimit:4;stroke-dasharray:none;stroke-opacity:1"
       cy="-150.08615"
       cx="97.655907"
       transform="scale(1,-1)"
       r="1.4992547" />
    <circle
       id="circle7-2-1-6"
       style="display:inline;fill:none;stroke:#ff0000;stroke-width:0.001;stroke-miterlimit:4;stroke-dasharray:none;stroke-opacity:1"
       cy="-14.041859"
       cx="73.965919"
       transform="scale(1,-1)"
       r="1.4992547" />
    <circle
       id="circle7-2-1-5"
       style="display:inline;fill:none;stroke:#ff0000;stroke-width:0.001;stroke-miterlimit:4;stroke-dasharray:none;stroke-opacity:1"
       cy="-14.046117"
       cx="106.48653"
       transform="scale(1,-1)"
       r="1.4992547" />
    <circle
       id="circle7-2-1-34"
       style="display:inline;fill:none;stroke:#ff0000;stroke-width:0.001;stroke-miterlimit:4;stroke-dasharray:none;stroke-opacity:1"
       cy="-197.65189"
       cx="73.985603"
       transform="scale(1,-1)"
       r="1.4992547" />
    <circle
       id="circle7-2-1-53"
       style="display:inline;fill:none;stroke:#ff0000;stroke-width:0.001;stroke-miterlimit:4;stroke-dasharray:none;stroke-opacity:1"
       cy="-197.6348"
       cx="106.42272"
       transform="scale(1,-1)"
       r="1.4992547" />
  </g>
  <g
     inkscape:groupmode="layer"
     id="layer2"
     inkscape:label="Engrave"
     style="display:inline"
     transform="translate(-65.205356,-8.7802234)">
    <rect
       style="opacity:1;fill:none;fill-opacity:1;stroke:#000000;stroke-width:0.2;stroke-linecap:butt;stroke-linejoin:round;stroke-miterlimit:4;stroke-dasharray:none;stroke-opacity:1"
       id="rect1588"
       width="29.993361"
       height="50.779457"
       x="75.097931"
       y="16.294289" />
    <rect
       style="opacity:1;fill:none;fill-opacity:1;stroke:#000000;stroke-width:0.2;stroke-linecap:butt;stroke-linejoin:round;stroke-miterlimit:4;stroke-dasharray:none;stroke-opacity:1"
       id="rect1588-8"
       width="29.992002"
       height="37.9692"
       x="74.928795"
       y="96.060364" />
    <path
       style="opacity:1;fill:none;fill-opacity:1;stroke:#000000;stroke-width:0.2;stroke-linecap:butt;stroke-linejoin:round;stroke-miterlimit:4;stroke-dasharray:none;stroke-opacity:1"
       d="m 99.530118,150.05233 h 6.131862 v 14.02455 H 74.867348 v -14.02455 h 6.140318"
       id="rect1588-8-5"
       inkscape:connector-curvature="0"
       sodipodi:nodetypes="cccccc" />
    <text
       xml:space="preserve"
       style="font-style:normal;font-variant:normal;font-weight:normal;font-stretch:normal;font-size:4.23333px;line-height:1.25;font-family:'Franklin Gothic Medium';-inkscape-font-specification:'Franklin Gothic Medium, ';letter-spacing:0px;word-spacing:0px;display:inline;fill:#000000;fill-opacity:1;stroke:#000000;stroke-width:0.1;stroke-miterlimit:4;stroke-dasharray:none;stroke-opacity:1"
       x="79.32476"
       y="198.4077"
       id="text7709-5-5-5"><tspan
         sodipodi:role="line"
         id="tspan7707-2-9-6"
         x="79.32476"
         y="198.4077"
         style="font-style:normal;font-variant:normal;font-weight:500;font-stretch:normal;font-size:2.82222px;font-family:Dubai;-inkscape-font-specification:'Dubai, Medium';font-variant-ligatures:normal;font-variant-caps:normal;font-variant-numeric:normal;font-feature-settings:normal;text-align:start;writing-mode:lr-tb;text-anchor:start;fill:#000000;fill-opacity:1;stroke:#000000;stroke-width:0.1;stroke-miterlimit:4;stroke-dasharray:none;stroke-opacity:1">DISPLAY BACKUP</tspan></text>
    <text
       xml:space="preserve"
       style="font-style:normal;font-variant:normal;font-weight:normal;font-stretch:normal;font-size:4.23333px;line-height:1.25;font-family:'Franklin Gothic Medium';-inkscape-font-specification:'Franklin Gothic Medium, ';letter-spacing:0px;word-spacing:0px;display:inline;fill:#000000;fill-opacity:1;stroke:#000000;stroke-width:0.1;stroke-miterlimit:4;stroke-dasharray:none;stroke-opacity:1"
       x="86.212524"
       y="151.30472"
       id="text7709-5-5-5-9"><tspan
         sodipodi:role="line"
         id="tspan7707-2-9-6-1"
         x="86.212524"
         y="151.30472"
         style="font-style:normal;font-variant:normal;font-weight:500;font-stretch:normal;font-size:2.82222px;font-family:Dubai;-inkscape-font-specification:'Dubai, Medium';font-variant-ligatures:normal;font-variant-caps:normal;font-variant-numeric:normal;font-feature-settings:normal;text-align:start;writing-mode:lr-tb;text-anchor:start;fill:#000000;fill-opacity:1;stroke:#000000;stroke-width:0.1;stroke-miterlimit:4;stroke-dasharray:none;stroke-opacity:1">CREW</tspan></text>
    <text
       xml:space="preserve"
       style="font-style:normal;font-variant:normal;font-weight:normal;font-stretch:normal;font-size:4.23333px;line-height:1.25;font-family:'Franklin Gothic Medium';-inkscape-font-specification:'Franklin Gothic Medium, ';letter-spacing:0px;word-spacing:0px;display:inline;fill:#000000;fill-opacity:1;stroke:#000000;stroke-width:0.1;stroke-miterlimit:4;stroke-dasharray:none;stroke-opacity:1"
       x="80.906685"
       y="162.7486"
       id="text7709-5-5-5-9-3"><tspan
         sodipodi:role="line"
         id="tspan7707-2-9-6-1-6"
         x="80.906685"
         y="162.7486"
         style="font-style:normal;font-variant:normal;font-weight:500;font-stretch:normal;font-size:2.82222px;font-family:Dubai;-inkscape-font-specification:'Dubai, Medium';font-variant-ligatures:normal;font-variant-caps:normal;font-variant-numeric:normal;font-feature-settings:normal;text-align:start;writing-mode:lr-tb;text-anchor:start;fill:#000000;fill-opacity:1;stroke:#000000;stroke-width:0.1;stroke-miterlimit:4;stroke-dasharray:none;stroke-opacity:1">ICS ISOLATION</tspan></text>
    <text
       xml:space="preserve"
       style="font-style:normal;font-variant:normal;font-weight:normal;font-stretch:normal;font-size:4.23333px;line-height:1.25;font-family:'Franklin Gothic Medium';-inkscape-font-specification:'Franklin Gothic Medium, ';letter-spacing:0px;word-spacing:0px;display:inline;fill:#000000;fill-opacity:1;stroke:#000000;stroke-width:0.1;stroke-miterlimit:4;stroke-dasharray:none;stroke-opacity:1"
       x="77.782486"
       y="181.11488"
       id="text7709-5-5-5-9-4"><tspan
         sodipodi:role="line"
         id="tspan7707-2-9-6-1-1"
         x="77.782486"
         y="181.11488"
         style="font-style:normal;font-variant:normal;font-weight:500;font-stretch:normal;font-size:2.82222px;font-family:Dubai;-inkscape-font-specification:'Dubai, Medium';font-variant-ligatures:normal;font-variant-caps:normal;font-variant-numeric:normal;font-feature-settings:normal;text-align:start;writing-mode:lr-tb;text-anchor:start;fill:#000000;fill-opacity:1;stroke:#000000;stroke-width:0.1;stroke-miterlimit:4;stroke-dasharray:none;stroke-opacity:1">VOL</tspan></text>
    <text
       xml:space="preserve"
       style="font-style:normal;font-variant:normal;font-weight:normal;font-stretch:normal;font-size:4.23333px;line-height:1.25;font-family:'Franklin Gothic Medium';-inkscape-font-specification:'Franklin Gothic Medium, ';letter-spacing:0px;word-spacing:0px;display:inline;fill:#000000;fill-opacity:1;stroke:#000000;stroke-width:0.1;stroke-miterlimit:4;stroke-dasharray:none;stroke-opacity:1"
       x="99.042915"
       y="181.24329"
       id="text7709-5-5-5-9-5"><tspan
         sodipodi:role="line"
         x="99.042915"
         y="181.24329"
         style="font-style:normal;font-variant:normal;font-weight:500;font-stretch:normal;font-size:2.82222px;font-family:Dubai;-inkscape-font-specification:'Dubai, Medium';font-variant-ligatures:normal;font-variant-caps:normal;font-variant-numeric:normal;font-feature-settings:normal;text-align:start;writing-mode:lr-tb;text-anchor:start;fill:#000000;fill-opacity:1;stroke:#000000;stroke-width:0.1;stroke-miterlimit:4;stroke-dasharray:none;stroke-opacity:1"
         id="tspan911">SQ</tspan></text>
    <text
       xml:space="preserve"
       style="font-style:normal;font-variant:normal;font-weight:normal;font-stretch:normal;font-size:4.23333px;line-height:1.25;font-family:'Franklin Gothic Medium';-inkscape-font-specification:'Franklin Gothic Medium, ';letter-spacing:0px;word-spacing:0px;display:inline;fill:#000000;fill-opacity:1;stroke:#000000;stroke-width:0.1;stroke-miterlimit:4;stroke-dasharray:none;stroke-opacity:1"
       x="80.660309"
       y="167.77203"
       id="text7709-5-5-5-9-4-4"><tspan
         sodipodi:role="line"
         id="tspan7707-2-9-6-1-1-5"
         x="80.660309"
         y="167.77203"
         style="font-style:normal;font-variant:normal;font-weight:500;font-stretch:normal;font-size:2.82222px;font-family:Dubai;-inkscape-font-specification:'Dubai, Medium';font-variant-ligatures:normal;font-variant-caps:normal;font-variant-numeric:normal;font-feature-settings:normal;text-align:start;writing-mode:lr-tb;text-anchor:start;fill:#000000;fill-opacity:1;stroke:#000000;stroke-width:0.1;stroke-miterlimit:4;stroke-dasharray:none;stroke-opacity:1">PILOT</tspan></text>
    <text
       xml:space="preserve"
       style="font-style:normal;font-variant:normal;font-weight:normal;font-stretch:normal;font-size:4.23333px;line-height:1.25;font-family:'Franklin Gothic Medium';-inkscape-font-specification:'Franklin Gothic Medium, ';letter-spacing:0px;word-spacing:0px;display:inline;fill:#000000;fill-opacity:1;stroke:#000000;stroke-width:0.1;stroke-miterlimit:4;stroke-dasharray:none;stroke-opacity:1"
       x="92.944527"
       y="167.77203"
       id="text7709-5-5-5-9-4-0"><tspan
         sodipodi:role="line"
         id="tspan7707-2-9-6-1-1-4"
         x="92.944527"
         y="167.77203"
         style="font-style:normal;font-variant:normal;font-weight:500;font-stretch:normal;font-size:2.82222px;font-family:Dubai;-inkscape-font-specification:'Dubai, Medium';font-variant-ligatures:normal;font-variant-caps:normal;font-variant-numeric:normal;font-feature-settings:normal;text-align:start;writing-mode:lr-tb;text-anchor:start;fill:#000000;fill-opacity:1;stroke:#000000;stroke-width:0.1;stroke-miterlimit:4;stroke-dasharray:none;stroke-opacity:1">PASS</tspan></text>
    <path
       style="display:inline;fill:none;fill-opacity:1;stroke:#000000;stroke-width:0.1;stroke-linecap:butt;stroke-linejoin:round;stroke-miterlimit:4;stroke-dasharray:none;stroke-opacity:1"
       d="m 88.756344,165.92318 c 0.34999,-0.41077 0.87108,-0.67128 1.45302,-0.67128 1.05381,0 1.9081,0.85429 1.9081,1.9081 0,1.05381 -0.85429,1.9081 -1.9081,1.9081 -0.66065,0 -1.24287,-0.33575 -1.58536,-0.84592"
       id="path1933"
       inkscape:connector-curvature="0"
       sodipodi:nodetypes="ccscc" />
    <path
       style="display:inline;fill:none;fill-opacity:1;stroke:#000000;stroke-width:0.1;stroke-linecap:butt;stroke-linejoin:miter;stroke-miterlimit:4;stroke-dasharray:none;stroke-opacity:1"
       d="m 92.266705,167.05751 h 0.620129"
       id="path1946"
       inkscape:connector-curvature="0" />
    <path
       style="display:inline;fill:none;fill-opacity:1;stroke:#000000;stroke-width:0.1;stroke-linecap:butt;stroke-linejoin:miter;stroke-miterlimit:4;stroke-dasharray:none;stroke-opacity:1"
       d="m 87.857952,167.07405 h 1.263724"
       id="path1946-4"
       inkscape:connector-curvature="0" />
    <circle
       style="fill:none;fill-opacity:1;stroke:#000000;stroke-width:0.1;stroke-linecap:butt;stroke-linejoin:round;stroke-miterlimit:4;stroke-dasharray:none;stroke-opacity:1"
       id="path953"
       cx="90.227623"
       cy="167.16405"
       r="1.0981905" />
    <text
       xml:space="preserve"
       style="font-style:normal;font-variant:normal;font-weight:bold;font-stretch:normal;font-size:3.175px;line-height:1.25;font-family:Tahoma;-inkscape-font-specification:'Tahoma, Bold';font-variant-ligatures:normal;font-variant-caps:normal;font-variant-numeric:normal;font-variant-east-asian:normal;display:inline;fill:#000000;fill-opacity:1;stroke:none;stroke-width:0.264583"
       x="85.682777"
       y="14.6484"
       id="text1321"><tspan
         sodipodi:role="line"
         id="tspan1319"
         x="85.682777"
         y="14.6484"
         style="font-style:normal;font-variant:normal;font-weight:bold;font-stretch:normal;font-size:2.82222px;font-family:Tahoma;-inkscape-font-specification:'Tahoma, Bold';font-variant-ligatures:normal;font-variant-caps:normal;font-variant-numeric:normal;font-variant-east-asian:normal;stroke-width:0.264583">REICH</tspan></text>
  </g>
</svg>
